# xmcd
#
# Track frame offsets: 
#        150
#        13394
#        23722
#        35343
#        46964
#        60313
#        71934
#        80969
#        92322
#        101657
#        116819
#        128903
#        143095
#        153698
#        166264
#        177513
#        191517
#        202856
#        213210
#        224616
#        237846
#        252461
#        264484
#        277187
#        290664
#        299492
#        312438
#
# Disc length: 4308 seconds
#
# Revision: 4
# Processed by: cddbd v1.5.2PL0 Copyright (c) Steve Scherf et al.
# Submitted via: ExactAudioCopyFreeDBPlugin 1.0
#
DISCID=a610d21b
DTITLE=Merle Haggard - Untamed Hawk - The Early Recordings Of Merle Ha
DTITLE=ggard - CD3
DYEAR=1995
DGENRE=Country
TTITLE0=Mary's Mine
TTITLE1=If You Want to Be My Woman
TTITLE2=Someone Told My Story
TTITLE3=Piedras Negras (Go Home)
TTITLE4=Whatever Happened To Me
TTITLE5=Loneliness Is Eating me Alive
TTITLE6=Skid Row
TTITLE7=Drink Up And Be Somebody
TTITLE8=Gone Crazy
TTITLE9=I Threw Away the Rose
TTITLE10=Some Of Us Never Learn
TTITLE11=Branded Man
TTITLE12=You Don't Have Very Far to Go
TTITLE13=Wine Take Me Away
TTITLE14=If You See My Baby
TTITLE15=Somewhere Between
TTITLE16=Don't Get Married
TTITLE17=My Hands Are Tied
TTITLE18=I Made the Prison Band
TTITLE19=Look Over Me
TTITLE20=Long Black Limousine
TTITLE21=I'll Leave the Bottle on the Bar
TTITLE22=Sing Me Back Home
TTITLE23=The Son of Hickory Holler's Tramp
TTITLE24=Seeing Eye Dog
TTITLE25=Will You Visit Me on Sundays
TTITLE26=Home Is Where a Kid Grows Up
EXTD=Submitted faithfully by +Sound Man+\nPlease visit my Merle Haggar
EXTD=d Discography site at:\nhttp://www.angelfire.com/stars4/anxietyfr
EXTD=iend/merlehaggard.htm
EXTT0=
EXTT1=
EXTT2=
EXTT3=
EXTT4=
EXTT5=
EXTT6=
EXTT7=
EXTT8=
EXTT9=
EXTT10=
EXTT11=
EXTT12=
EXTT13=
EXTT14=
EXTT15=
EXTT16=
EXTT17=
EXTT18=
EXTT19=
EXTT20=
EXTT21=
EXTT22=
EXTT23=
EXTT24=
EXTT25=
EXTT26=
PLAYORDER=
